<svg id="visual" viewBox="0 0 900 600" width="900" height="600" xmlns="http://www.w3.org/2000/svg" xmlns:xlink="http://www.w3.org/1999/xlink" version="1.1"><rect x="0" y="0" width="900" height="600" fill="#ffffff"></rect><path d="M0 470L21.5 456C43 442 86 414 128.8 419.3C171.7 424.7 214.3 463.3 257.2 485.5C300 507.7 343 513.3 385.8 502.3C428.7 491.3 471.3 463.7 514.2 443C557 422.3 600 408.7 642.8 415.7C685.7 422.7 728.3 450.3 771.2 447.2C814 444 857 410 878.5 393L900 376L900 601L878.5 601C857 601 814 601 771.2 601C728.3 601 685.7 601 642.8 601C600 601 557 601 514.2 601C471.3 601 428.7 601 385.8 601C343 601 300 601 257.2 601C214.3 601 171.7 601 128.8 601C86 601 43 601 21.5 601L0 601Z" fill="#f8f9fa" stroke-linecap="round" stroke-linejoin="miter"></path></svg>