<svg id="visual" viewBox="0 0 900 100" width="900" height="100" xmlns="http://www.w3.org/2000/svg" xmlns:xlink="http://www.w3.org/1999/xlink" version="1.1"><rect x="0" y="0" width="900" height="100" fill="#ffffff"></rect><path d="M0 26L21.5 33.2C43 40.3 86 54.7 128.8 61C171.7 67.3 214.3 65.7 257.2 64.3C300 63 343 62 385.8 59.8C428.7 57.7 471.3 54.3 514.2 55.5C557 56.7 600 62.3 642.8 62.7C685.7 63 728.3 58 771.2 53.7C814 49.3 857 45.7 878.5 43.8L900 42L900 101L878.5 101C857 101 814 101 771.2 101C728.3 101 685.7 101 642.8 101C600 101 557 101 514.2 101C471.3 101 428.7 101 385.8 101C343 101 300 101 257.2 101C214.3 101 171.7 101 128.8 101C86 101 43 101 21.5 101L0 101Z" fill="#f8f9fa" stroke-linecap="round" stroke-linejoin="miter"></path></svg>