<svg id="visual" viewBox="0 0 900 600" width="900" height="600" xmlns="http://www.w3.org/2000/svg" xmlns:xlink="http://www.w3.org/1999/xlink" version="1.1"><rect x="0" y="0" width="900" height="600" fill="#f8f9fa"></rect><path d="M0 466L21.5 466.7C43 467.3 86 468.7 128.8 465.2C171.7 461.7 214.3 453.3 257.2 453.7C300 454 343 463 385.8 469.2C428.7 475.3 471.3 478.7 514.2 466.2C557 453.7 600 425.3 642.8 431C685.7 436.7 728.3 476.3 771.2 493.2C814 510 857 504 878.5 501L900 498L900 601L878.5 601C857 601 814 601 771.2 601C728.3 601 685.7 601 642.8 601C600 601 557 601 514.2 601C471.3 601 428.7 601 385.8 601C343 601 300 601 257.2 601C214.3 601 171.7 601 128.8 601C86 601 43 601 21.5 601L0 601Z" fill="#ffffff" stroke-linecap="round" stroke-linejoin="miter"></path></svg>