<svg id="visual" viewBox="0 0 900 600" width="900" height="600" xmlns="http://www.w3.org/2000/svg" xmlns:xlink="http://www.w3.org/1999/xlink" version="1.1"><rect x="0" y="0" width="900" height="600" fill="#ffffff"></rect><path d="M0 380L21.5 394.2C43 408.3 86 436.7 128.8 456C171.7 475.3 214.3 485.7 257.2 472C300 458.3 343 420.7 385.8 422.2C428.7 423.7 471.3 464.3 514.2 483.3C557 502.3 600 499.7 642.8 493.8C685.7 488 728.3 479 771.2 468.8C814 458.7 857 447.3 878.5 441.7L900 436L900 601L878.5 601C857 601 814 601 771.2 601C728.3 601 685.7 601 642.8 601C600 601 557 601 514.2 601C471.3 601 428.7 601 385.8 601C343 601 300 601 257.2 601C214.3 601 171.7 601 128.8 601C86 601 43 601 21.5 601L0 601Z" fill="#f8f9fa" stroke-linecap="round" stroke-linejoin="miter"></path></svg>