<svg id="visual" viewBox="0 0 900 100" width="900" height="100" xmlns="http://www.w3.org/2000/svg" xmlns:xlink="http://www.w3.org/1999/xlink" version="1.1"><rect x="0" y="0" width="900" height="100" fill="#ffffff"></rect><path d="M0 73L21.5 68.7C43 64.3 86 55.7 128.8 55.2C171.7 54.7 214.3 62.3 257.2 65.8C300 69.3 343 68.7 385.8 65.8C428.7 63 471.3 58 514.2 52.2C557 46.3 600 39.7 642.8 41.7C685.7 43.7 728.3 54.3 771.2 56.5C814 58.7 857 52.3 878.5 49.2L900 46L900 101L878.5 101C857 101 814 101 771.2 101C728.3 101 685.7 101 642.8 101C600 101 557 101 514.2 101C471.3 101 428.7 101 385.8 101C343 101 300 101 257.2 101C214.3 101 171.7 101 128.8 101C86 101 43 101 21.5 101L0 101Z" fill="#f8f9fa" stroke-linecap="round" stroke-linejoin="miter"></path></svg>