<svg id="visual" viewBox="0 0 900 600" width="900" height="600" xmlns="http://www.w3.org/2000/svg" xmlns:xlink="http://www.w3.org/1999/xlink" version="1.1"><rect x="0" y="0" width="900" height="600" fill="#f8f9fa"></rect><path d="M0 471L21.5 457.2C43 443.3 86 415.7 128.8 419.8C171.7 424 214.3 460 257.2 471.8C300 483.7 343 471.3 385.8 471.3C428.7 471.3 471.3 483.7 514.2 484.3C557 485 600 474 642.8 458C685.7 442 728.3 421 771.2 417.8C814 414.7 857 429.3 878.5 436.7L900 444L900 601L878.5 601C857 601 814 601 771.2 601C728.3 601 685.7 601 642.8 601C600 601 557 601 514.2 601C471.3 601 428.7 601 385.8 601C343 601 300 601 257.2 601C214.3 601 171.7 601 128.8 601C86 601 43 601 21.5 601L0 601Z" fill="#ffffff" stroke-linecap="round" stroke-linejoin="miter"></path></svg>