<svg id="visual" viewBox="0 0 900 600" width="900" height="600" xmlns="http://www.w3.org/2000/svg" xmlns:xlink="http://www.w3.org/1999/xlink" version="1.1"><rect x="0" y="0" width="900" height="600" fill="#f8f9fa"></rect><path d="M0 382L21.5 396.8C43 411.7 86 441.3 128.8 445C171.7 448.7 214.3 426.3 257.2 422.8C300 419.3 343 434.7 385.8 449.3C428.7 464 471.3 478 514.2 477.8C557 477.7 600 463.3 642.8 456.8C685.7 450.3 728.3 451.7 771.2 457.3C814 463 857 473 878.5 478L900 483L900 601L878.5 601C857 601 814 601 771.2 601C728.3 601 685.7 601 642.8 601C600 601 557 601 514.2 601C471.3 601 428.7 601 385.8 601C343 601 300 601 257.2 601C214.3 601 171.7 601 128.8 601C86 601 43 601 21.5 601L0 601Z" fill="#ffffff" stroke-linecap="round" stroke-linejoin="miter"></path></svg>