<svg id="visual" viewBox="0 0 900 600" width="900" height="600" xmlns="http://www.w3.org/2000/svg" xmlns:xlink="http://www.w3.org/1999/xlink" version="1.1"><rect x="0" y="0" width="900" height="600" fill="#ffffff"></rect><path d="M0 409L21.5 423.3C43 437.7 86 466.3 128.8 476C171.7 485.7 214.3 476.3 257.2 465.7C300 455 343 443 385.8 444.2C428.7 445.3 471.3 459.7 514.2 464.5C557 469.3 600 464.7 642.8 460.2C685.7 455.7 728.3 451.3 771.2 458C814 464.7 857 482.3 878.5 491.2L900 500L900 601L878.5 601C857 601 814 601 771.2 601C728.3 601 685.7 601 642.8 601C600 601 557 601 514.2 601C471.3 601 428.7 601 385.8 601C343 601 300 601 257.2 601C214.3 601 171.7 601 128.8 601C86 601 43 601 21.5 601L0 601Z" fill="#f8f9fa" stroke-linecap="round" stroke-linejoin="miter"></path></svg>