<svg id="visual" viewBox="0 0 900 100" width="900" height="100" xmlns="http://www.w3.org/2000/svg" xmlns:xlink="http://www.w3.org/1999/xlink" version="1.1"><rect x="0" y="0" width="900" height="100" fill="#ffffff"></rect><path d="M0 55L21.5 55.2C43 55.3 86 55.7 128.8 54.2C171.7 52.7 214.3 49.3 257.2 51.3C300 53.3 343 60.7 385.8 59C428.7 57.3 471.3 46.7 514.2 42.8C557 39 600 42 642.8 43.8C685.7 45.7 728.3 46.3 771.2 49.5C814 52.7 857 58.3 878.5 61.2L900 64L900 101L878.5 101C857 101 814 101 771.2 101C728.3 101 685.7 101 642.8 101C600 101 557 101 514.2 101C471.3 101 428.7 101 385.8 101C343 101 300 101 257.2 101C214.3 101 171.7 101 128.8 101C86 101 43 101 21.5 101L0 101Z" fill="#5865f2" stroke-linecap="round" stroke-linejoin="miter"></path></svg>