<svg id="visual" viewBox="0 0 900 100" width="900" height="100" xmlns="http://www.w3.org/2000/svg" xmlns:xlink="http://www.w3.org/1999/xlink" version="1.1"><rect x="0" y="0" width="900" height="100" fill="#ffffff"></rect><path d="M0 63L21.5 62.8C43 62.7 86 62.3 128.8 56.3C171.7 50.3 214.3 38.7 257.2 40C300 41.3 343 55.7 385.8 63.5C428.7 71.3 471.3 72.7 514.2 66.8C557 61 600 48 642.8 47.5C685.7 47 728.3 59 771.2 61.2C814 63.3 857 55.7 878.5 51.8L900 48L900 101L878.5 101C857 101 814 101 771.2 101C728.3 101 685.7 101 642.8 101C600 101 557 101 514.2 101C471.3 101 428.7 101 385.8 101C343 101 300 101 257.2 101C214.3 101 171.7 101 128.8 101C86 101 43 101 21.5 101L0 101Z" fill="#f8f9fa" stroke-linecap="round" stroke-linejoin="miter"></path></svg>